<?xml version="1.0" standalone="no"?><!DOCTYPE svg PUBLIC "-//W3C//DTD SVG 1.1//EN" "http://www.w3.org/Graphics/SVG/1.1/DTD/svg11.dtd"><svg t="1770193323256" class="icon" viewBox="0 0 1024 1024" version="1.1" xmlns="http://www.w3.org/2000/svg" p-id="1953" xmlns:xlink="http://www.w3.org/1999/xlink" width="200" height="200"><path d="M512 512m-512 0a512 512 0 1 0 1024 0 512 512 0 1 0-1024 0Z" fill="#FFFFFF" opacity=".8" p-id="1954"></path><path d="M512 512m-332.8 0a332.8 332.8 0 1 0 665.6 0 332.8 332.8 0 1 0-665.6 0Z" fill="#ED7123" p-id="1955"></path><path d="M607.744 553.984c-15.36-17.92-28.16-33.28-44.544-52.224-8.704-10.24-18.944-18.944-30.72-23.04-1.024 0-3.584-1.024-6.144-1.024-5.12-1.024-8.704-1.024-13.824-1.024s-8.704 0-13.824 1.024c-2.56 0-3.584 1.024-6.144 1.024-12.8 3.584-23.04 13.824-30.72 23.04-15.36 17.92-28.16 33.28-44.544 52.224-23.04 23.04-52.224 49.664-47.104 85.504 5.12 17.92 17.92 35.84 41.984 41.984 12.8 2.56 54.784-7.68 99.328-7.68h2.56c44.544 0 85.504 10.24 99.328 7.68 23.04-5.12 36.864-23.04 41.984-41.984 4.608-35.84-25.088-62.976-47.616-85.504z m-6.656-95.744c0 24.064 20.48 44.544 44.544 44.544 24.064 0 44.544-20.48 44.544-44.544s-20.48-44.544-44.544-44.544c-24.064 0-44.544 20.48-44.544 44.544z m-80.384-71.168c0 24.064 20.48 44.544 44.544 44.544s44.544-20.48 44.544-44.544-20.48-44.544-44.544-44.544-44.544 20.48-44.544 44.544z m-107.008 0c0 24.064 20.48 44.544 44.544 44.544s44.544-20.48 44.544-44.544-20.48-44.544-44.544-44.544-44.544 20.48-44.544 44.544zM333.824 458.24c0 24.064 20.48 44.544 44.544 44.544s44.544-20.48 44.544-44.544-20.48-44.544-44.544-44.544-44.544 20.48-44.544 44.544z" fill="#FFFFFF" p-id="1956"></path></svg>