<?xml version="1.0" standalone="no"?><!DOCTYPE svg PUBLIC "-//W3C//DTD SVG 1.1//EN" "http://www.w3.org/Graphics/SVG/1.1/DTD/svg11.dtd"><svg t="1770271504100" class="icon" viewBox="0 0 1120 1024" version="1.1" xmlns="http://www.w3.org/2000/svg" p-id="8000" xmlns:xlink="http://www.w3.org/1999/xlink" width="218.75" height="200"><path d="M613.664 47.168l460.32 318.464 3.744 2.88c19.008 16 22.816 43.936 8 64.416a49.184 49.184 0 0 1-40 20.288 49.28 49.28 0 0 1-28.16-8.768l-33.344-23.072v410.464c0 104.192-86.496 188.864-192.704 188.864H320.896c-106.24 0-192.704-84.672-192.704-188.864V421.376l-33.376 23.04a49.504 49.504 0 0 1-68.16-11.52 47.68 47.68 0 0 1 11.744-67.264l460.32-318.464a101.536 101.536 0 0 1 114.944 0z m-45.472 63.04a21.152 21.152 0 0 0-24 0L207.68 343.008l-6.56 4.576 3.296 7.264a28.16 28.16 0 0 1 2.56 11.648v465.376c0 61.632 51.104 111.68 113.888 111.68h470.624c62.72 0 113.888-50.048 113.888-111.68V366.464a27.84 27.84 0 0 1 2.56-11.616l3.296-7.296z" fill="#231815" p-id="8001"></path><path d="M398.816 711.328c-0.448 26.656 21.184 48.512 48.224 48.96l102.912 1.6 115.328-1.6c27.008-0.384 48.64-22.208 48.32-48.864a48.416 48.416 0 0 0-49.728-47.488l-113.824 1.6-101.344-1.6a48.704 48.704 0 0 0-49.888 47.36z" fill="#231815" p-id="8002"></path></svg>