<?xml version="1.0" standalone="no"?><!DOCTYPE svg PUBLIC "-//W3C//DTD SVG 1.1//EN" "http://www.w3.org/Graphics/SVG/1.1/DTD/svg11.dtd"><svg t="1770271743871" class="icon" viewBox="0 0 1024 1024" version="1.1" xmlns="http://www.w3.org/2000/svg" p-id="19499" xmlns:xlink="http://www.w3.org/1999/xlink" width="200" height="200"><path d="M512 48C255.744 48 48 255.744 48 512l0.106667 10.090667A461.781333 461.781333 0 0 0 112.128 747.52l5.504 9.066667-23.146667 63.68-1.472 4.437333c-12.501333 43.669333 10.24 88.405333 51.861334 103.552l5.589333 1.813333c7.552 2.154667 15.36 3.264 23.210667 3.264l143.829333 0.021334-7.978667-3.754667A462.250667 462.250667 0 0 0 512 976c256.256 0 464-207.744 464-464S768.256 48 512 48z m0 74.666667c215.04 0 389.333333 174.293333 389.333333 389.333333S727.04 901.333333 512 901.333333c-59.690667 0-117.376-13.418667-169.856-38.890666a37.333333 37.333333 0 0 0-16.298667-3.754667l-152.170666-0.021333a9.6 9.6 0 0 1-9.237334-12.181334l0.64-1.92 29.098667-79.936a37.333333 37.333333 0 0 0-4.224-33.770666A387.306667 387.306667 0 0 1 122.666667 512C122.666667 296.96 296.96 122.666667 512 122.666667z" fill="#000000" p-id="19500"></path><path d="M602.730667 642.005333a37.333333 37.333333 0 0 1 63.872 38.656 180.736 180.736 0 0 1-309.205334 0 37.333333 37.333333 0 0 1 63.872-38.656 106.069333 106.069333 0 0 0 181.461334 0z" fill="#000000" p-id="19501"></path></svg>