<?xml version="1.0" standalone="no"?><!DOCTYPE svg PUBLIC "-//W3C//DTD SVG 1.1//EN" "http://www.w3.org/Graphics/SVG/1.1/DTD/svg11.dtd"><svg t="1770307495584" class="icon" viewBox="0 0 1024 1024" version="1.1" xmlns="http://www.w3.org/2000/svg" p-id="25083" xmlns:xlink="http://www.w3.org/1999/xlink" width="200" height="200"><path d="M510.805802 8.121981c-234.855936 0-425.236937 185.942923-425.236937 415.319054s338.387917 585.237001 425.236937 585.237001 425.236937-355.86087 425.236937-585.237001S745.652528 8.121981 510.805802 8.121981zM564.770877 224.993311c26.27441 0.01842 47.868217 33.533744 48.226375 74.857918 0.358157 41.323151-20.653389 74.81187-46.927799 74.794473-26.276457-0.016373-47.865147-33.531698-48.223305-74.852802C517.487991 258.46668 538.492374 224.977961 564.770877 224.993311zM454.165804 224.924749c26.276457 0.016373 47.863101 33.533744 48.223305 74.857918 0.358157 41.321104-20.646226 74.809823-46.924729 74.79345-26.273387-0.01535-47.862078-33.531698-48.220235-74.851778C406.885987 258.398118 427.891394 224.909399 454.165804 224.924749zM349.892949 408.173306c-14.184047-30.460756-10.051937-62.461587 9.235338-71.466682 19.287275-9.003048 46.422286 8.385994 60.613496 38.84675 14.18814 30.456662 10.050913 62.451354-9.238408 71.463612C391.219169 456.014918 364.082112 438.629969 349.892949 408.173306zM594.019015 575.072501c-11.076266-0.008186-18.22713-0.026606-36.383652-9.529027 0 0-11.802814-10.824533-39.196721-9.731642-27.669176-1.118474-39.291888 9.818623-39.291888 9.818623-17.99177 9.473769-24.886807 9.370415-35.951817 9.362228-25.130354-0.016373-43.905976-12.308327-44.125987-37.673018-0.11154-12.8384 6.677073-25.12933 21.053502-48.313356 0 0 27.158547-46.178739 50.853202-67.899436 17.119913-15.671934 42.279942-15.600303 42.279942-15.600303l7.760754 0.005117 0-0.007163c0 0 26.261107-0.050142 42.573631 15.658631 23.337521 22.537296 52.010561 67.954695 52.010561 67.947532 14.786775 23.191188 21.766746 35.504632 21.878287 48.338938C637.700887 562.804083 619.152439 575.08785 594.019015 575.072501zM672.242588 408.372851c-13.661138 30.440289-40.489156 47.801702-59.940161 38.770002-19.451004-9.036817-24.14491-41.037648-10.482749-71.486124 13.661138-30.446429 40.48711-47.804772 59.937091-38.766932C681.20675 345.923544 685.902702 377.931538 672.242588 408.372851z" fill="#2c2c2c" p-id="25084"></path></svg>