<?xml version="1.0" standalone="no"?><!DOCTYPE svg PUBLIC "-//W3C//DTD SVG 1.1//EN" "http://www.w3.org/Graphics/SVG/1.1/DTD/svg11.dtd"><svg t="1770272086416" class="icon" viewBox="0 0 1024 1024" version="1.1" xmlns="http://www.w3.org/2000/svg" p-id="3222" xmlns:xlink="http://www.w3.org/1999/xlink" width="200" height="200"><path d="M256 341.333333c0-141.376 114.624-256 256-256h213.333333a42.666667 42.666667 0 0 1 42.666667 42.666667v213.333333c0 141.376-114.624 256-256 256s-256-114.624-256-256zM142.826667 769.216A181.333333 181.333333 0 0 1 316.501333 640h390.997334a181.333333 181.333333 0 0 1 173.674666 129.216l34.346667 114.517333A42.666667 42.666667 0 0 1 874.666667 938.666667H149.333333a42.666667 42.666667 0 0 1-40.874666-54.933334l34.346666-114.496z" fill="#000000" p-id="3223"></path><path d="M554.666667 256v170.666667h-85.333334v-170.666667h85.333334z" fill="#FFFFFF" p-id="3224"></path></svg>