<?xml version="1.0" standalone="no"?><!DOCTYPE svg PUBLIC "-//W3C//DTD SVG 1.1//EN" "http://www.w3.org/Graphics/SVG/1.1/DTD/svg11.dtd"><svg t="1770271614705" class="icon" viewBox="0 0 1024 1024" version="1.1" xmlns="http://www.w3.org/2000/svg" p-id="12751" xmlns:xlink="http://www.w3.org/1999/xlink" width="200" height="200"><path d="M506.666667 106.666667c145.706667 0 273.002667 78.976 341.354666 196.48 79.594667 21.269333 132.352 59.434667 141.845334 113.237333 9.493333 53.845333-27.093333 107.776-94.72 155.029333C862.08 755.946667 700.736 896 506.666667 896c-145.493333 0-272.576-78.72-341.013334-195.861333-79.808-21.269333-132.693333-59.456-142.208-113.344-9.493333-53.845333 27.072-107.776 94.656-155.008C150.954667 246.997333 312.426667 106.666667 506.666667 106.666667z" fill="#131415" p-id="12752"></path><path d="M736.064 581.717333a32 32 0 1 1 23.36 59.584c-65.152 25.557333-139.392 46.08-217.578667 59.882667-77.098667 13.589333-152.810667 19.712-222.016 18.218667a32 32 0 1 1 1.365334-64c64.938667 1.408 136.469333-4.373333 209.536-17.258667 74.090667-13.056 144.213333-32.448 205.333333-56.426667z" fill="#FFFFFF" p-id="12753"></path></svg>