<?xml version="1.0" standalone="no"?><!DOCTYPE svg PUBLIC "-//W3C//DTD SVG 1.1//EN" "http://www.w3.org/Graphics/SVG/1.1/DTD/svg11.dtd"><svg t="1770306820036" class="icon" viewBox="0 0 1024 1024" version="1.1" xmlns="http://www.w3.org/2000/svg" p-id="10381" xmlns:xlink="http://www.w3.org/1999/xlink" width="300" height="300"><path d="M520.533333 96c86.528 0 166.912 26.453333 233.472 71.68l-9.301333 1.322667c125.312-19.413333 221.44 13.269333 256.512 88.405333 29.781333 63.872 1.834667 142.378667-66.048 220.714667 0.896 11.178667 1.365333 22.485333 1.365333 33.877333 0 229.76-186.24 416-416 416a414.677333 414.677333 0 0 1-291.84-119.552c-104.618667 2.090667-183.552-26.922667-213.546666-91.221333-31.786667-68.181333 0.853333-157.866667 79.701333-228.565334a42.666667 42.666667 0 0 1 10.752-7.082666C121.173333 266.069333 301.013333 96 520.533333 96z m326.954667 465.578667l-5.290667 4.266666c-64.085333 51.029333-143.104 99.413333-231.765333 140.8-90.453333 42.112-180.053333 71.893333-261.674667 87.978667a330.752 330.752 0 0 0 498.773334-233.088zM520.533333 181.333333a330.666667 330.666667 0 0 0-256.384 539.52c9.898667-0.981333 20.053333-2.261333 30.506667-3.84l21.589333-3.498666c21.973333-3.925333 44.970667-8.96 68.736-15.232l24.064-6.613334c16.213333-4.693333 32.682667-9.898667 49.493334-15.616l25.258666-8.96a1185.024 1185.024 0 0 0 177.749334-82.944l23.168-13.568c15.146667-9.173333 29.738667-18.474667 43.733333-27.861333l20.522667-14.165333 9.941333-7.125334 19.114667-14.293333c9.301333-7.168 18.261333-14.293333 26.794666-21.461333l16.64-14.293334c8.362667-7.424 16.298667-14.805333 23.808-22.144A330.794667 330.794667 0 0 0 520.533333 181.333333z m-407.594666 414.293334c-23.296 33.92-29.781333 65.450667-20.48 85.504 9.045333 19.328 32.768 32.170667 67.413333 38.314666a414.208 414.208 0 0 1-46.933333-123.818666z m731.050666-345.258667l3.072 3.84a415.317333 415.317333 0 0 1 63.829334 113.706667c16.810667-29.738667 21.802667-55.552 12.970666-74.453334-10.24-22.016-37.632-38.058667-79.872-43.093333z" fill="#000000" p-id="10382"></path></svg>